<svg width="400" height="340" viewBox="0 0 400 340" fill="none" xmlns="http://www.w3.org/2000/svg">
<path d="M361.904 222.385C374.952 222.385 385.531 211.807 385.531 198.758C385.531 185.709 374.952 175.131 361.904 175.131C348.855 175.131 338.277 185.709 338.277 198.758C338.277 211.807 348.855 222.385 361.904 222.385Z" fill="#F2F2F2"/>
<path d="M254.096 222.385C267.144 222.385 277.722 211.807 277.722 198.758C277.722 185.709 267.144 175.131 254.096 175.131C241.047 175.131 230.469 185.709 230.469 198.758C230.469 211.807 241.047 222.385 254.096 222.385Z" fill="#F2F2F2"/>
<path d="M278.423 9.56885H220.668V78.1741H278.423V9.56885Z" fill="#F2F2F2"/>
<path d="M293.242 78.6422H220.2V0H293.242V78.6422ZM221.136 77.7058H292.305V0.936465H221.136V77.7058Z" fill="#3F3D56"/>
<path d="M293.242 233.354H220.2V154.712H293.242V233.354ZM221.136 232.418H292.305V155.648H221.136V232.418Z" fill="#3F3D56"/>
<path d="M186.484 233.354H113.442V154.712H186.484V233.354ZM114.378 232.418H185.547V155.648H114.378V232.418Z" fill="#3F3D56"/>
<path d="M400 233.354H326.958V154.712H400V233.354ZM327.894 232.418H399.064V155.648H327.894V232.418Z" fill="#3F3D56"/>
<path d="M257.189 78.174H256.253V155.18H257.189V78.174Z" fill="#3F3D56"/>
<path d="M363.948 155.18H363.011V112.245H150.431V155.18H149.495V111.308H363.948V155.18Z" fill="#3F3D56"/>
<path d="M268.622 31.3562H220.668V32.2927H268.622V31.3562Z" fill="#3F3D56"/>
<path d="M268.622 44.1033H220.668V45.0397H268.622V44.1033Z" fill="#3F3D56"/>
<path d="M268.622 56.8502H220.668V57.7867H268.622V56.8502Z" fill="#3F3D56"/>
<path d="M201.399 336.267H11.3788V337.098H201.399V336.267Z" fill="#3F3D56"/>
<path d="M149.963 222.385C165.621 222.385 178.315 209.691 178.315 194.033C178.315 178.374 165.621 165.681 149.963 165.681C134.304 165.681 121.611 178.374 121.611 194.033C121.611 209.691 134.304 222.385 149.963 222.385Z" fill="#34495E"/>
<path d="M167.814 191.233H152.763V176.181H147.162V191.233H132.111V196.833H147.162V211.884H152.763V196.833H167.814V191.233Z" fill="white"/>
<path d="M256.721 222.853C251.021 222.853 245.449 221.163 240.709 217.996C235.97 214.829 232.276 210.328 230.094 205.062C227.913 199.796 227.342 194.001 228.454 188.41C229.566 182.82 232.311 177.685 236.342 173.654C240.372 169.623 245.508 166.879 251.098 165.766C256.689 164.654 262.484 165.225 267.75 167.406C273.016 169.588 277.517 173.282 280.684 178.021C283.851 182.761 285.541 188.333 285.541 194.033C285.533 201.674 282.493 208.999 277.09 214.402C271.687 219.805 264.362 222.845 256.721 222.853ZM256.721 166.149C251.206 166.149 245.815 167.784 241.229 170.848C236.644 173.912 233.07 178.267 230.96 183.362C228.849 188.457 228.297 194.064 229.373 199.473C230.449 204.882 233.104 209.85 237.004 213.75C240.904 217.649 245.872 220.305 251.281 221.381C256.69 222.457 262.297 221.905 267.392 219.794C272.487 217.684 276.842 214.11 279.906 209.524C282.969 204.939 284.605 199.548 284.605 194.033C284.596 186.64 281.656 179.553 276.428 174.325C271.201 169.098 264.114 166.157 256.721 166.149V166.149Z" fill="#3F3D56"/>
<path d="M275.041 197.301H238.401V190.764H275.04L275.041 197.301ZM239.338 196.365H274.104V191.701H239.338V196.365Z" fill="#3F3D56"/>
<path d="M363.479 222.853C357.779 222.853 352.207 221.163 347.467 217.996C342.728 214.829 339.034 210.328 336.853 205.062C334.671 199.796 334.1 194.001 335.212 188.411C336.324 182.82 339.069 177.685 343.1 173.654C347.13 169.623 352.266 166.879 357.856 165.766C363.447 164.654 369.242 165.225 374.508 167.406C379.774 169.588 384.275 173.282 387.442 178.021C390.609 182.76 392.299 188.333 392.299 194.033C392.291 201.674 389.251 208.999 383.848 214.402C378.446 219.805 371.12 222.844 363.479 222.853V222.853ZM363.479 166.149C357.964 166.149 352.573 167.784 347.988 170.848C343.402 173.912 339.828 178.267 337.718 183.362C335.607 188.457 335.055 194.064 336.131 199.473C337.207 204.882 339.862 209.85 343.762 213.75C347.662 217.649 352.63 220.305 358.039 221.381C363.448 222.457 369.055 221.905 374.15 219.794C379.245 217.684 383.6 214.11 386.664 209.524C389.728 204.939 391.363 199.548 391.363 194.033C391.354 186.64 388.414 179.553 383.187 174.325C377.959 169.098 370.872 166.158 363.479 166.149V166.149Z" fill="#3F3D56"/>
<path d="M370.711 202.302V197.301H346.559V190.764H370.711V185.718L380.662 194.311L370.711 202.302ZM347.496 196.365H371.648V200.348L379.199 194.285L371.648 187.764V191.701H347.496V196.365Z" fill="#3F3D56"/>
<path d="M119.671 168.174C119.671 168.174 129.638 188.94 122.994 189.77C116.349 190.601 114.688 171.082 114.688 171.082L119.671 168.174Z" fill="#FFB9B9"/>
<path d="M81.8787 301.071L88.5235 312.846L76.4798 320.382L73.6038 306.478L81.8787 301.071Z" fill="#FFB9B9"/>
<path d="M84.7165 314.482C84.7165 314.482 88.365 308.542 89.6847 309.536C91.0043 310.531 96.4473 314.839 96.4473 314.839L103.537 321.63C103.537 321.63 127.49 324.162 112.27 332.555C97.0495 340.948 88.6382 333.989 88.6382 333.989C88.6382 333.989 67.3204 335.097 67.6643 329.15C68.0081 323.202 74.8833 313.793 74.8833 313.793C74.8833 313.793 83.5483 319.602 84.7165 314.482Z" fill="#2F2E41"/>
<path opacity="0.1" d="M84.7165 314.482C84.7165 314.482 88.365 308.542 89.6847 309.536C91.0043 310.531 96.4473 314.839 96.4473 314.839L103.537 321.63C103.537 321.63 127.49 324.162 112.27 332.555C97.0495 340.948 88.6382 333.989 88.6382 333.989C88.6382 333.989 67.3204 335.097 67.6643 329.15C68.0081 323.202 74.8833 313.793 74.8833 313.793C74.8833 313.793 83.5483 319.602 84.7165 314.482Z" fill="black"/>
<path d="M52.3925 167.967L58.622 243.344C58.622 243.344 58.8297 288.404 65.4745 297.126C72.1193 305.847 72.327 310.208 72.327 310.208L86.032 303.147C86.032 303.147 81.4636 302.732 83.5401 299.825C85.6167 296.918 91.8462 299.825 86.032 295.672C80.2177 291.519 78.9718 291.383 80.4254 289.582C81.3214 288.44 81.959 287.117 82.2942 285.705L78.5565 239.191L85.6167 158.207L52.3925 167.967Z" fill="#2F2E41"/>
<path opacity="0.1" d="M52.3925 167.967L58.622 243.344C58.622 243.344 58.8297 288.404 65.4745 297.126C72.1193 305.847 72.327 310.208 72.327 310.208L86.032 303.147C86.032 303.147 81.4636 302.732 83.5401 299.825C85.6167 296.918 91.8462 299.825 86.032 295.672C80.2177 291.519 78.9718 291.383 80.4254 289.582C81.3214 288.44 81.959 287.117 82.2942 285.705L78.5565 239.191L85.6167 158.207L52.3925 167.967Z" fill="black"/>
<path d="M69.4198 301.071L63.6056 316.437L46.9935 310.208L57.3761 299.41L69.4198 301.071Z" fill="#FFB9B9"/>
<path d="M61.1708 309.831C61.1708 309.831 67.3781 305.952 68.154 307.503C68.9299 309.055 72.0335 315.65 72.0335 315.65L75.5251 325.349C75.5251 325.349 96.8627 338.928 78.6288 339.704C60.3948 340.48 55.7394 330.005 55.7394 330.005C55.7394 330.005 35.1777 321.082 38.2814 315.65C41.3851 310.219 52.2478 304.586 52.2478 304.586C52.2478 304.586 57.6792 314.099 61.1708 309.831Z" fill="#2F2E41"/>
<path d="M105.136 168.174L108.458 237.53C108.458 237.53 92.2615 283.628 78.1412 291.104C78.1412 291.104 78.1412 300.24 74.8188 301.902C73.8288 302.413 72.9512 303.117 72.2379 303.973C71.5246 304.829 70.9901 305.819 70.6658 306.885L52.3925 302.317C52.3925 302.317 56.9608 297.749 55.2996 295.672C53.6384 293.596 60.6986 289.027 60.6986 289.027L78.9718 244.59C78.9718 244.59 81.8789 243.344 82.7095 239.191C83.5401 235.038 85.2014 235.038 81.0483 234.207C76.8953 233.377 76.8953 229.224 76.8953 229.224L63.1904 166.098L105.136 168.174Z" fill="#2F2E41"/>
<path d="M90.1848 59.3654C99.3594 59.3654 106.797 51.9279 106.797 42.7533C106.797 33.5787 99.3594 26.1412 90.1848 26.1412C81.0102 26.1412 73.5728 33.5787 73.5728 42.7533C73.5728 51.9279 81.0102 59.3654 90.1848 59.3654Z" fill="#FFB9B9"/>
<path d="M75.4417 43.7915C75.4417 43.7915 74.1958 64.9719 72.5346 67.0484C70.8734 69.1249 89.9773 68.7096 89.9773 68.7096C89.9773 68.7096 88.7314 50.8516 89.9773 49.1904C91.2232 47.5292 75.4417 43.7915 75.4417 43.7915Z" fill="#FFB9B9"/>
<path d="M69.8351 60.6113C69.8351 60.6113 85.6165 58.95 91.4308 63.9337C93.2881 65.5193 95.278 66.9429 97.3785 68.1886C99.1329 69.2409 100.594 70.7174 101.629 72.4824C102.663 74.2473 103.237 76.2441 103.297 78.2889L106.382 172.743C106.382 172.743 59.4525 168.59 50.7312 172.743C50.7312 172.743 50.3159 163.191 49.4853 161.945C48.8798 161.037 47.8328 124.814 47.3099 105.249C47.0148 94.2078 50.8094 83.3771 58.2137 75.1812C60.7309 72.3949 63.5433 70.0594 66.5127 68.9173C66.5127 68.9173 65.6821 61.0266 69.8351 60.6113Z" fill="#575A89"/>
<path d="M95.1686 68.9172C97.5064 69.5324 99.6104 70.8247 101.216 72.6317C102.822 74.4387 103.858 76.6798 104.195 79.0737L110.119 121.245L118.425 154.885C118.425 154.885 122.579 158.622 120.917 160.699C119.256 162.775 122.994 171.497 122.994 171.497L112.611 174.819C112.611 174.819 111.365 166.098 109.289 165.683C107.464 165.318 87.0355 110.746 82.1115 97.5255C81.4325 95.7026 81.0483 94.6659 81.0483 94.6659C81.0483 94.6659 81.8789 66.8407 95.1686 68.9172Z" fill="#575A89"/>
<path opacity="0.1" d="M81.2558 94.4584L106.382 162.431C106.382 162.431 82.0864 116.469 81.2558 94.4584Z" fill="black"/>
<path d="M81.5065 47.6482C82.9114 47.5644 84.2832 48.0392 85.6783 48.2244C90.6697 48.8871 95.8624 45.2651 96.9645 40.3519C97.0528 39.6977 97.2478 39.0623 97.5417 38.4711C98.3099 37.2169 100.059 36.9778 101.502 37.2662C102.944 37.5546 104.311 38.2296 105.78 38.3066C108.048 38.4256 110.225 37.0295 111.433 35.1069C112.642 33.1843 112.984 30.8185 112.821 28.5534L111.734 29.6945C111.292 28.7599 111.122 27.7201 111.242 26.6933C110.666 26.5399 110.06 26.5369 109.482 26.6847C108.904 26.8325 108.375 27.1261 107.943 27.5374C106.984 27.6394 107.708 25.7593 106.996 25.1095C106.697 24.8375 106.24 24.8888 105.836 24.8927C103.797 24.9124 102.147 23.3525 100.54 22.0968C97.7558 19.926 94.4997 18.4407 91.035 17.7611C88.7322 17.3119 86.2834 17.2397 84.0994 18.0973C82.3059 18.8015 80.8047 20.0841 79.4157 21.4197C75.9966 24.7074 72.9689 28.5704 71.5464 33.0955C70.39 36.802 70.3573 40.7679 71.4523 44.4929C72.0255 46.4274 73.7528 53.0526 76.2817 53.2069C79.4592 53.4007 77.5514 47.8842 81.5065 47.6482Z" fill="#2F2E41"/>
<path d="M29.7199 336.548L29.2742 336.381C29.1763 336.344 19.428 332.61 14.8615 324.141C10.2948 315.672 12.5309 305.475 12.5541 305.373L12.6593 304.909L13.1048 305.076C13.2028 305.113 22.9508 308.848 27.5175 317.316C32.0842 325.785 29.8481 335.982 29.825 336.084L29.7199 336.548ZM15.5928 323.747C19.4536 330.907 27.1569 334.577 29.1087 335.415C29.4798 333.323 30.6436 324.864 26.7863 317.711C22.9293 310.558 15.2229 306.882 13.2703 306.042C12.899 308.135 11.7356 316.594 15.5928 323.747H15.5928Z" fill="#3F3D56"/>
<path d="M18.3515 321.17C26.5581 326.107 29.7187 335.914 29.7187 335.914C29.7187 335.914 19.5738 337.716 11.3672 332.779C3.16062 327.842 0 318.035 0 318.035C0 318.035 10.1449 316.233 18.3515 321.17Z" fill="#34495E"/>
</svg>
