<svg width="380" height="292" viewBox="0 0 380 292" fill="none" xmlns="http://www.w3.org/2000/svg">
<path opacity="0.1" d="M370.793 198.423C370.453 198.671 370.14 198.913 369.806 199.148C368.575 200.019 367.286 200.805 365.948 201.501C358.941 205.195 350.303 207 341.889 208.226C323.019 210.977 303.754 211.511 284.571 212.036C232.738 213.459 180.779 214.879 129.071 211.6C108.642 210.306 87.763 208.141 69.2504 201.501C66.5969 200.552 63.9955 199.506 61.4464 198.362C56.2879 196.043 51.3337 193.22 47.2138 189.849C43.3424 186.69 40.2031 183.06 38.327 178.933C34.4147 170.339 36.4849 160.686 40.9521 152.262C42.8075 148.855 44.8998 145.581 47.2138 142.466C50.663 137.723 54.4663 133.117 57.9359 128.377C70.2821 111.529 78.3382 90.2146 66.9419 72.9346C63.6664 67.9702 58.9335 63.612 56.2641 58.4297C52.8591 51.8003 53.1213 44.4389 54.2041 37.2885C54.3448 36.3806 54.4935 35.4816 54.6501 34.5918C56.499 23.9889 59.9788 12.5654 70.7077 5.94625C81.852 -0.931686 97.6781 -0.584384 111.509 1.86035C133.018 5.7011 152.858 13.6958 172.91 20.9143C192.961 28.1327 213.939 34.728 235.976 35.4362C255.435 36.0628 278.132 31.3742 291.047 19.188C303.591 7.35248 327.17 6.45018 344.164 13.6005C355.829 18.507 364.532 27.3462 368.202 37.2885C368.946 39.2846 369.481 41.3522 369.799 43.4582C370.093 45.383 370.189 47.3329 370.085 49.2772C370.034 50.2374 369.935 51.1874 369.799 52.1272C366.96 71.7463 346.52 87.2217 334.095 104.747C328.024 113.307 323.737 123.59 327.912 132.82C334.279 146.886 356.421 151.888 369.792 162.355C372.309 164.26 374.524 166.532 376.364 169.096C382.85 178.412 380.457 190.993 370.793 198.423Z" fill="#34495E"/>
<path d="M87.7868 110.617C87.7868 110.617 72.1242 82.86 48.5213 74.8652C38.6164 71.508 29.9713 65.1952 24.0603 56.5672C21.262 52.4707 18.8457 48.126 16.8419 43.5876" stroke="#535461" stroke-width="2" stroke-miterlimit="10"/>
<path d="M1.99988 38.4496C4.68977 41.0476 17.2131 43.7715 17.2131 43.7715C17.2131 43.7715 14.1486 31.3367 11.4519 28.7252C10.1556 27.4976 8.42786 26.8304 6.64301 26.868C4.85815 26.9056 3.16001 27.6451 1.9166 28.9261C0.673187 30.2072 -0.0153298 31.9266 0.000259056 33.7118C0.0158479 35.497 0.734286 37.2041 1.99988 38.4632V38.4496Z" fill="#34495E"/>
<path d="M9.08551 60.9527C12.7594 61.6814 24.7481 57.1426 24.7481 57.1426C24.7481 57.1426 15.4016 48.3716 11.7243 47.6429C9.97663 47.3352 8.17791 47.7243 6.71367 48.7268C5.24943 49.7294 4.23617 51.2657 3.89106 53.0064C3.54595 54.7471 3.89644 56.5537 4.86742 58.0391C5.8384 59.5245 7.3526 60.5704 9.08551 60.9527V60.9527Z" fill="#34495E"/>
<path d="M34.8778 85.3115C38.4189 84.0857 46.4545 74.1195 46.4545 74.1195C46.4545 74.1195 33.9652 71.2628 30.4275 72.4886C29.5595 72.7582 28.7545 73.1995 28.0603 73.7863C27.3661 74.373 26.7968 75.0933 26.3863 75.9042C25.9758 76.7152 25.7324 77.6004 25.6705 78.5072C25.6086 79.4141 25.7296 80.3241 26.0262 81.1833C26.3228 82.0425 26.789 82.8334 27.3971 83.509C28.0052 84.1846 28.7428 84.7311 29.5662 85.1161C30.3896 85.5012 31.2819 85.7169 32.1902 85.7504C33.0986 85.784 34.0044 85.6347 34.8539 85.3115H34.8778Z" fill="#34495E"/>
<path d="M58.542 99.3364C62.2397 98.7235 71.8552 90.2623 71.8552 90.2623C71.8552 90.2623 60.0299 85.3353 56.3322 85.9448C54.5563 86.2379 52.9697 87.2243 51.9212 88.6873C50.8727 90.1502 50.4483 91.9697 50.7413 93.7455C51.0343 95.5213 52.0208 97.108 53.4837 98.1565C54.9466 99.205 56.7661 99.6294 58.542 99.3364V99.3364Z" fill="#34495E"/>
<path d="M35.1808 47.425C35.1808 51.1704 28.405 62.0423 28.405 62.0423C28.405 62.0423 21.6156 51.1772 21.6122 47.4318C21.592 46.5281 21.7525 45.6294 22.0843 44.7886C22.4162 43.9478 22.9127 43.1817 23.5446 42.5354C24.1766 41.8891 24.9314 41.3756 25.7646 41.025C26.5977 40.6744 27.4926 40.4938 28.3965 40.4938C29.3005 40.4938 30.1953 40.6744 31.0285 41.025C31.8617 41.3756 32.6164 41.8891 33.2484 42.5354C33.8804 43.1817 34.3769 43.9478 34.7087 44.7886C35.0406 45.6294 35.2011 46.5281 35.1808 47.4318V47.425Z" fill="#34495E"/>
<path d="M62.6517 64.201C61.5315 67.7762 51.8104 76.1182 51.8104 76.1182C51.8104 76.1182 48.5826 63.7073 49.6892 60.1151C50.2839 58.4704 51.4907 57.1188 53.0578 56.3423C54.625 55.5658 56.4314 55.4243 58.1003 55.9474C59.7692 56.4704 61.1717 57.6176 62.0152 59.1497C62.8588 60.6818 63.0783 62.4804 62.6279 64.1703L62.6517 64.201Z" fill="#34495E"/>
<path d="M87.1126 84.1368C86.6155 87.8516 78.4437 97.7156 78.4437 97.7156C78.4437 97.7156 73.1661 86.0436 73.6768 82.3288C73.9413 80.5668 74.8881 78.9795 76.3128 77.9096C77.7376 76.8397 79.5259 76.373 81.2918 76.6104C83.0576 76.8478 84.6593 77.7702 85.7509 79.1783C86.8425 80.5865 87.3365 82.3675 87.1263 84.1368H87.1126Z" fill="#34495E"/>
<path opacity="0.25" d="M1.99988 38.4496C4.68977 41.0476 17.2131 43.7715 17.2131 43.7715C17.2131 43.7715 14.1486 31.3367 11.4519 28.7252C10.1556 27.4976 8.42786 26.8304 6.64301 26.868C4.85815 26.9056 3.16001 27.6451 1.9166 28.9261C0.673187 30.2072 -0.0153298 31.9266 0.000259056 33.7118C0.0158479 35.497 0.734286 37.2041 1.99988 38.4632V38.4496Z" fill="black"/>
<path opacity="0.25" d="M9.08551 60.9527C12.7594 61.6814 24.7481 57.1426 24.7481 57.1426C24.7481 57.1426 15.4016 48.3716 11.7243 47.6429C9.97663 47.3352 8.17791 47.7243 6.71367 48.7268C5.24943 49.7294 4.23617 51.2657 3.89106 53.0064C3.54595 54.7471 3.89644 56.5537 4.86742 58.0391C5.8384 59.5245 7.3526 60.5704 9.08551 60.9527V60.9527Z" fill="black"/>
<path opacity="0.25" d="M34.8778 85.3115C38.4189 84.0857 46.4545 74.1195 46.4545 74.1195C46.4545 74.1195 33.9652 71.2628 30.4275 72.4886C29.5595 72.7582 28.7545 73.1995 28.0603 73.7863C27.3661 74.373 26.7968 75.0933 26.3863 75.9042C25.9758 76.7152 25.7324 77.6004 25.6705 78.5072C25.6086 79.4141 25.7296 80.3241 26.0262 81.1833C26.3228 82.0425 26.789 82.8334 27.3971 83.509C28.0052 84.1846 28.7428 84.7311 29.5662 85.1161C30.3896 85.5012 31.2819 85.7169 32.1902 85.7504C33.0986 85.784 34.0044 85.6347 34.8539 85.3115H34.8778Z" fill="black"/>
<path opacity="0.25" d="M58.542 99.3364C62.2397 98.7235 71.8552 90.2623 71.8552 90.2623C71.8552 90.2623 60.0299 85.3353 56.3322 85.9448C54.5563 86.2379 52.9697 87.2243 51.9212 88.6873C50.8727 90.1502 50.4483 91.9697 50.7413 93.7455C51.0343 95.5213 52.0208 97.108 53.4837 98.1565C54.9466 99.205 56.7661 99.6294 58.542 99.3364V99.3364Z" fill="black"/>
<path opacity="0.25" d="M35.1808 47.425C35.1808 51.1704 28.405 62.0423 28.405 62.0423C28.405 62.0423 21.6156 51.1772 21.6122 47.4318C21.592 46.5281 21.7525 45.6294 22.0843 44.7886C22.4162 43.9478 22.9127 43.1817 23.5446 42.5354C24.1766 41.8891 24.9314 41.3756 25.7646 41.025C26.5977 40.6744 27.4926 40.4938 28.3965 40.4938C29.3005 40.4938 30.1953 40.6744 31.0285 41.025C31.8617 41.3756 32.6164 41.8891 33.2484 42.5354C33.8804 43.1817 34.3769 43.9478 34.7087 44.7886C35.0406 45.6294 35.2011 46.5281 35.1808 47.4318V47.425Z" fill="black"/>
<path opacity="0.25" d="M62.6517 64.201C61.5315 67.7762 51.8104 76.1182 51.8104 76.1182C51.8104 76.1182 48.5826 63.7073 49.6892 60.1151C50.2839 58.4704 51.4907 57.1188 53.0578 56.3423C54.625 55.5658 56.4314 55.4243 58.1003 55.9474C59.7692 56.4704 61.1717 57.6176 62.0152 59.1497C62.8588 60.6818 63.0783 62.4804 62.6279 64.1703L62.6517 64.201Z" fill="black"/>
<path opacity="0.25" d="M87.1126 84.1368C86.6155 87.8516 78.4437 97.7156 78.4437 97.7156C78.4437 97.7156 73.1661 86.0436 73.6768 82.3288C73.9413 80.5668 74.8881 78.9795 76.3128 77.9096C77.7376 76.8397 79.5259 76.373 81.2918 76.6104C83.0576 76.8478 84.6593 77.7702 85.7509 79.1783C86.8425 80.5865 87.3365 82.3675 87.1263 84.1368H87.1126Z" fill="black"/>
<path d="M86.8845 110.065C86.8845 110.065 83.8201 78.3382 65.4744 61.4635C57.7827 54.3812 52.4369 45.1199 50.5268 34.8234C49.6302 29.9431 49.1834 24.9909 49.1921 20.029" stroke="#535461" stroke-width="2" stroke-miterlimit="10"/>
<path d="M37.7004 9.32734C39.1033 12.8038 49.4576 20.3457 49.4576 20.3457C49.4576 20.3457 51.6879 7.73044 50.2884 4.25401C49.6157 2.58339 48.3068 1.24844 46.6498 0.54285C44.9928 -0.162743 43.1233 -0.181185 41.4527 0.49158C39.782 1.16435 38.4471 2.47321 37.7415 4.13024C37.0359 5.78726 37.0175 7.65672 37.6902 9.32734H37.7004Z" fill="#34495E"/>
<path d="M35.048 32.7702C38.1124 34.9255 50.9047 35.6303 50.9047 35.6303C50.9047 35.6303 45.9438 23.8289 42.8793 21.6736C41.4078 20.6351 39.5841 20.2237 37.8092 20.5298C36.0344 20.836 34.4539 21.8347 33.4154 23.3062C32.3769 24.7777 31.9655 26.6015 32.2716 28.3764C32.5778 30.1512 33.5765 31.7317 35.048 32.7702V32.7702Z" fill="#34495E"/>
<path d="M48.7732 65.4847C52.5186 65.8013 63.9047 59.9483 63.9047 59.9483C63.9047 59.9483 53.6457 52.277 49.9105 51.9638C49.0118 51.8681 48.103 51.9529 47.2375 52.2132C46.372 52.4735 45.5672 52.9041 44.8704 53.4797C44.1735 54.0553 43.5987 54.7643 43.1796 55.565C42.7606 56.3658 42.5057 57.2422 42.4299 58.1429C42.3542 59.0435 42.4591 59.9502 42.7385 60.8097C43.018 61.6692 43.4663 62.4643 44.0572 63.1481C44.648 63.832 45.3696 64.391 46.1794 64.7923C46.9893 65.1935 47.8712 65.4289 48.7732 65.4847Z" fill="#34495E"/>
<path d="M64.7219 87.9027C68.3515 88.8424 80.5718 85.0017 80.5718 85.0017C80.5718 85.0017 71.7565 75.7062 68.1302 74.7665C66.3993 74.3471 64.5728 74.6251 63.045 75.5404C61.5171 76.4557 60.4104 77.935 59.9635 79.659C59.5166 81.3831 59.7654 83.2137 60.6563 84.7559C61.5471 86.2982 63.0086 87.4284 64.7253 87.9027H64.7219Z" fill="#34495E"/>
<path d="M64.3984 30.9792C62.8832 34.4046 52.2803 41.5924 52.2803 41.5924C52.2803 41.5924 50.4757 28.9125 51.9909 25.4837C52.3418 24.6541 52.8544 23.9027 53.4987 23.2733C54.143 22.6439 54.9061 22.149 55.7437 21.8176C56.5812 21.4862 57.4763 21.3248 58.3769 21.3428C59.2774 21.3609 60.1653 21.5581 60.9889 21.9228C61.8124 22.2876 62.5551 22.8127 63.1737 23.4674C63.7922 24.1222 64.2742 24.8935 64.5916 25.7365C64.9089 26.5795 65.0553 27.4772 65.0221 28.3773C64.989 29.2774 64.7769 30.1619 64.3984 30.9792V30.9792Z" fill="#34495E"/>
<path d="M82.7169 57.4286C80.2449 60.2445 67.977 63.932 67.977 63.932C67.977 63.932 70.0472 51.293 72.5226 48.4771C73.1103 47.8077 73.8242 47.2607 74.6234 46.8672C75.4225 46.4737 76.2914 46.2415 77.1803 46.1838C78.0693 46.1261 78.9609 46.244 79.8042 46.5309C80.6475 46.8178 81.4261 47.2679 82.0955 47.8557C82.7649 48.4435 83.3119 49.1573 83.7054 49.9565C84.0989 50.7557 84.3311 51.6245 84.3888 52.5135C84.4465 53.4024 84.3286 54.294 84.0417 55.1373C83.7548 55.9807 83.3047 56.7593 82.7169 57.4286V57.4286Z" fill="#34495E"/>
<path d="M97.0175 85.5839C95.0563 88.7777 83.5885 94.4844 83.5885 94.4844C83.5885 94.4844 83.4932 81.6751 85.4544 78.4813C86.3963 76.9461 87.9095 75.848 89.661 75.4284C91.4125 75.0089 93.259 75.3024 94.7941 76.2442C96.3293 77.1861 97.4274 78.6992 97.847 80.4508C98.2665 82.2023 97.973 84.0487 97.0312 85.5839H97.0175Z" fill="#34495E"/>
<path opacity="0.1" d="M138.918 290.002C159.892 290.002 176.894 287.788 176.894 285.058C176.894 282.327 159.892 280.114 138.918 280.114C117.945 280.114 100.943 282.327 100.943 285.058C100.943 287.788 117.945 290.002 138.918 290.002Z" fill="#34495E"/>
<path opacity="0.1" d="M62.2124 286.651C68.5835 286.651 73.7483 285.767 73.7483 284.676C73.7483 283.586 68.5835 282.701 62.2124 282.701C55.8414 282.701 50.6766 283.586 50.6766 284.676C50.6766 285.767 55.8414 286.651 62.2124 286.651Z" fill="#34495E"/>
<path d="M64.7185 262.687C64.7185 262.687 66.5878 265.135 63.8536 268.816C61.1195 272.497 58.8654 275.626 59.7677 277.931C59.7677 277.931 63.8911 271.07 67.2586 270.975C70.626 270.88 68.4162 266.814 64.7185 262.687Z" fill="#34495E"/>
<path opacity="0.1" d="M64.7184 262.687C64.8817 262.924 65.0102 263.183 65.0998 263.457C68.3753 267.304 70.122 270.897 66.9725 270.985C64.0409 271.07 60.5202 276.314 59.6792 277.638C59.7069 277.741 59.7399 277.842 59.7779 277.941C59.7779 277.941 63.9013 271.08 67.2687 270.985C70.6362 270.89 68.4162 266.814 64.7184 262.687Z" fill="black"/>
<path d="M68.1949 265.806C68.1949 266.668 68.0996 267.366 67.9804 267.366C67.8612 267.366 67.7625 266.685 67.7625 265.806C67.7625 264.928 67.885 265.35 68.0042 265.35C68.1234 265.35 68.1949 264.945 68.1949 265.806Z" fill="#FFD037"/>
<path d="M69.39 266.834C68.6341 267.246 67.9735 267.495 67.9157 267.389C67.8578 267.284 68.4264 266.865 69.1823 266.453C69.9382 266.041 69.6385 266.341 69.6964 266.453C69.7543 266.565 70.1459 266.422 69.39 266.834Z" fill="#FFD037"/>
<path d="M54.8374 262.687C54.8374 262.687 52.9681 265.135 55.7022 268.816C58.4364 272.497 60.6905 275.626 59.7881 277.931C59.7881 277.931 55.6648 271.07 52.2973 270.975C48.9299 270.88 51.1465 266.814 54.8374 262.687Z" fill="#34495E"/>
<path opacity="0.1" d="M54.8374 262.687C54.6741 262.924 54.5457 263.183 54.456 263.457C51.1805 267.304 49.4338 270.897 52.5833 270.985C55.5184 271.07 59.0356 276.314 59.8767 277.638C59.8504 277.741 59.8175 277.843 59.7779 277.941C59.7779 277.941 55.6546 271.08 52.2871 270.985C48.9196 270.89 51.1465 266.814 54.8374 262.687Z" fill="black"/>
<path d="M51.361 265.806C51.361 266.668 51.4563 267.366 51.5755 267.366C51.6946 267.366 51.7934 266.685 51.7934 265.806C51.7934 264.928 51.6708 265.35 51.5516 265.35C51.4325 265.35 51.361 264.945 51.361 265.806Z" fill="#FFD037"/>
<path d="M50.1692 266.834C50.9251 267.246 51.5823 267.495 51.6402 267.389C51.698 267.284 51.1294 266.865 50.3735 266.453C49.6176 266.041 49.9173 266.341 49.8594 266.453C49.8015 266.565 49.4134 266.422 50.1692 266.834Z" fill="#FFD037"/>
<path d="M51.9568 277.621C51.9568 277.621 57.1868 277.458 58.7667 276.338C60.3465 275.217 66.8091 273.872 67.2006 275.674C67.5922 277.475 75.0592 284.625 69.1551 284.673C63.2509 284.721 55.4366 283.754 53.8636 282.797C52.2905 281.84 51.9568 277.621 51.9568 277.621Z" fill="#A8A8A8"/>
<path opacity="0.2" d="M69.2572 284.046C63.3531 284.094 55.5388 283.127 53.9657 282.17C52.7672 281.438 52.2905 278.82 52.1305 277.614H51.9568C51.9568 277.614 52.2973 281.83 53.8602 282.79C55.423 283.75 63.2475 284.714 69.1517 284.666C70.8541 284.666 71.4466 284.046 71.4125 283.147C71.1776 283.699 70.5273 284.036 69.2572 284.046Z" fill="black"/>
<path d="M226.609 277.42C226.609 277.42 212.213 276.552 213.912 286.641C213.912 286.641 213.571 288.422 215.189 289.232C215.189 289.232 215.216 288.486 216.666 288.738C217.182 288.825 217.707 288.85 218.229 288.813C218.936 288.767 219.609 288.489 220.143 288.023V288.023C220.143 288.023 224.188 286.355 225.761 279.739C225.761 279.739 226.925 278.295 226.881 277.924L224.45 278.946C224.45 278.946 225.281 280.699 224.627 282.157C224.627 282.157 224.549 279.01 224.082 279.092C223.987 279.092 222.819 279.698 222.819 279.698C222.819 279.698 224.249 282.763 223.159 284.969C223.159 284.969 223.568 281.224 222.363 279.92L220.66 280.917C220.66 280.917 222.329 284.07 221.198 286.644C221.198 286.644 221.488 282.698 220.303 281.159L218.754 282.368C218.754 282.368 220.32 285.476 219.363 287.611C219.363 287.611 219.24 283.018 218.416 282.671C218.416 282.671 217.054 283.866 216.854 284.373C216.854 284.373 217.926 286.627 217.262 287.819C217.262 287.819 216.854 284.755 216.517 284.755C216.517 284.755 215.155 286.798 215.025 288.159C215.025 288.159 215.086 286.093 216.19 284.547C215.411 284.695 214.692 285.068 214.123 285.619C214.123 285.619 214.334 284.186 216.506 284.06C216.506 284.06 217.623 282.521 217.923 282.429C217.923 282.429 215.744 282.245 214.422 282.831C214.422 282.831 215.584 281.469 218.321 282.092L219.85 280.846C219.85 280.846 216.983 280.451 215.764 280.887C215.764 280.887 217.167 279.688 220.262 280.546L221.93 279.552C221.93 279.552 219.482 279.024 218.025 279.211C218.025 279.211 219.564 278.381 222.417 279.279L223.609 278.745C223.609 278.745 221.815 278.404 221.29 278.34C220.766 278.275 220.739 278.139 220.739 278.139C221.874 277.949 223.04 278.079 224.106 278.513C224.106 278.513 226.653 277.58 226.609 277.42Z" fill="#34495E"/>
<path opacity="0.1" d="M216.694 291.833C222.32 291.833 226.881 291.062 226.881 290.111C226.881 289.159 222.32 288.388 216.694 288.388C211.067 288.388 206.506 289.159 206.506 290.111C206.506 291.062 211.067 291.833 216.694 291.833Z" fill="#34495E"/>
<path d="M201.388 277.958C201.388 277.958 193.271 277.468 194.238 283.158C194.189 283.446 194.233 283.743 194.362 284.005C194.492 284.267 194.701 284.482 194.96 284.618C194.96 284.618 194.96 284.196 195.794 284.339C196.084 284.386 196.379 284.401 196.673 284.383C197.071 284.354 197.449 284.198 197.752 283.937V283.937C197.752 283.937 200.033 282.994 200.922 279.266C200.922 279.266 201.576 278.452 201.552 278.244L200.19 278.827C200.19 278.827 200.656 279.817 200.289 280.638C200.289 280.638 200.244 278.864 199.982 278.905C199.928 278.905 199.271 279.245 199.271 279.245C199.271 279.245 200.074 280.948 199.468 282.218C199.468 282.218 199.696 280.097 199.019 279.368L198.055 279.933C198.055 279.933 198.995 281.711 198.358 283.161C198.358 283.161 198.522 280.934 197.851 280.069L196.979 280.75C196.979 280.75 197.861 282.504 197.32 283.706C197.32 283.706 197.248 281.115 196.785 280.921C196.453 281.2 196.157 281.519 195.903 281.871C195.903 281.871 196.509 283.144 196.135 283.815C196.135 283.815 195.903 282.089 195.716 282.082C195.716 282.082 194.953 283.226 194.875 284.009C194.909 283.282 195.135 282.578 195.529 281.966C195.09 282.049 194.685 282.258 194.364 282.569C194.364 282.569 194.483 281.758 195.726 281.69C195.726 281.69 196.353 280.822 196.523 280.771C196.523 280.771 195.294 280.665 194.548 280.996C194.548 280.996 195.205 280.233 196.748 280.58L197.609 279.875C197.609 279.875 195.992 279.654 195.307 279.899C195.307 279.899 196.097 279.218 197.844 279.715L198.78 279.157C198.059 278.997 197.319 278.933 196.581 278.966C196.581 278.966 197.449 278.5 199.056 279.004L199.737 278.704C199.737 278.704 198.716 278.503 198.433 278.472C198.15 278.442 198.12 278.36 198.12 278.36C198.76 278.254 199.418 278.327 200.02 278.571C200.02 278.571 201.412 278.05 201.388 277.958Z" fill="#34495E"/>
<path opacity="0.1" d="M195.798 286.086C198.97 286.086 201.542 285.651 201.542 285.116C201.542 284.58 198.97 284.145 195.798 284.145C192.625 284.145 190.054 284.58 190.054 285.116C190.054 285.651 192.625 286.086 195.798 286.086Z" fill="#34495E"/>
<path d="M216.837 265.902C216.837 265.902 207.041 265.309 208.195 272.177C208.136 272.525 208.188 272.883 208.345 273.2C208.501 273.517 208.754 273.776 209.067 273.941C209.067 273.941 209.067 273.433 210.071 273.6C210.422 273.656 210.778 273.673 211.133 273.651C211.615 273.617 212.072 273.428 212.437 273.113V273.113C212.437 273.113 215.192 271.976 216.261 267.471C216.261 267.471 217.055 266.491 217.024 266.239L215.369 266.943C215.369 266.943 215.934 268.139 215.492 269.129C215.492 269.129 215.437 266.988 215.117 267.039C215.056 267.039 214.259 267.451 214.259 267.451C214.259 267.451 215.233 269.531 214.497 271.04C214.497 271.04 214.777 268.479 213.956 267.601L212.792 268.282C212.792 268.282 213.929 270.427 213.159 272.18C213.159 272.18 213.357 269.494 212.546 268.435L211.491 269.255C211.491 269.255 212.56 271.37 211.91 272.824C211.91 272.824 211.825 269.698 211.263 269.46C211.263 269.46 210.34 270.273 210.2 270.607C210.2 270.607 210.932 272.143 210.476 272.953C210.476 272.953 210.2 270.873 209.972 270.863C209.972 270.863 209.053 272.225 208.951 273.188C208.995 272.314 209.267 271.466 209.741 270.73C209.211 270.83 208.722 271.084 208.335 271.458C208.335 271.458 208.478 270.481 209.969 270.396C209.969 270.396 210.728 269.351 210.932 269.286C210.932 269.286 209.448 269.163 208.549 269.562C208.549 269.562 209.339 268.639 211.205 269.058L212.247 268.21C212.247 268.21 210.292 267.941 209.465 268.237C209.465 268.237 210.418 267.424 212.529 268.016L213.663 267.335C213.663 267.335 211.998 266.995 211.007 267.107C211.007 267.107 212.053 266.542 213.997 267.151L214.807 266.79C214.807 266.79 213.585 266.548 213.227 266.511C212.87 266.474 212.853 266.375 212.853 266.375C213.626 266.246 214.419 266.335 215.144 266.63C215.144 266.63 216.871 266.011 216.837 265.902Z" fill="#34495E"/>
<path opacity="0.1" d="M210.091 275.711C213.922 275.711 217.027 275.187 217.027 274.54C217.027 273.893 213.922 273.369 210.091 273.369C206.261 273.369 203.156 273.893 203.156 274.54C203.156 275.187 206.261 275.711 210.091 275.711Z" fill="#34495E"/>
<path d="M370.433 199.08V32.5353H46.5056V189.526C50.6425 192.978 55.6171 195.883 60.8062 198.27C63.3622 199.448 65.9726 200.525 68.6375 201.501H366.568L370.433 199.08Z" fill="url(#paint0_linear)"/>
<path d="M369.806 199.148V37.3022H47.2138V189.877C51.3338 193.234 56.2879 196.057 61.4464 198.389C63.9933 199.524 66.5946 200.57 69.2504 201.528H365.948L369.806 199.148Z" fill="white"/>
<path d="M369.806 33.0086H47.2172V41.5686H369.806V33.0086Z" fill="#5A5773"/>
<path d="M53.6593 39.5018C54.8816 39.5018 55.8725 38.5109 55.8725 37.2886C55.8725 36.0662 54.8816 35.0754 53.6593 35.0754C52.437 35.0754 51.4461 36.0662 51.4461 37.2886C51.4461 38.5109 52.437 39.5018 53.6593 39.5018Z" fill="white"/>
<path d="M59.6179 39.5018C60.8403 39.5018 61.8311 38.5109 61.8311 37.2886C61.8311 36.0663 60.8403 35.0754 59.6179 35.0754C58.3956 35.0754 57.4047 36.0663 57.4047 37.2886C57.4047 38.5109 58.3956 39.5018 59.6179 39.5018Z" fill="white"/>
<path d="M65.5765 39.5018C66.7989 39.5018 67.7897 38.5109 67.7897 37.2886C67.7897 36.0663 66.7989 35.0754 65.5765 35.0754C64.3542 35.0754 63.3633 36.0663 63.3633 37.2886C63.3633 38.5109 64.3542 39.5018 65.5765 39.5018Z" fill="white"/>
<path d="M182.941 60.3808H129.654V93.8647H182.941V60.3808Z" fill="#34495E"/>
<path opacity="0.2" d="M109.159 60.3808H55.8725V93.8647H109.159V60.3808Z" fill="#5A5773"/>
<path opacity="0.2" d="M256.722 60.3808H203.435V93.8647H256.722V60.3808Z" fill="#5A5773"/>
<path opacity="0.2" d="M109.16 108.25H55.8725V141.734H109.16V108.25Z" fill="#5A5773"/>
<path opacity="0.2" d="M182.941 108.25H129.654V141.734H182.941V108.25Z" fill="#5A5773"/>
<path opacity="0.2" d="M256.722 108.25H203.435V141.734H256.722V108.25Z" fill="#5A5773"/>
<path opacity="0.2" d="M109.16 156.117H55.8725V189.601H109.16V156.117Z" fill="#5A5773"/>
<path opacity="0.2" d="M182.941 156.117H129.654V189.601H182.941V156.117Z" fill="#5A5773"/>
<path opacity="0.2" d="M256.722 156.117H203.435V189.601H256.722V156.117Z" fill="#5A5773"/>
<path d="M169.883 89.7107L166.206 91.0114L164.871 88.7982C163.849 87.0957 162.433 84.7667 161.388 83.0745C159.542 80.0986 161.956 75.5632 161.956 75.5632C161.956 75.5632 162.392 71.0109 163.945 69.608C165.497 68.2052 165.93 75.5632 165.93 75.5632C172.164 78.3961 168.824 85.0596 168.824 85.0596L169.43 87.7018L169.883 89.7107Z" fill="#EFB7B9"/>
<path opacity="0.1" d="M169.883 89.7107L166.206 91.0114L164.871 88.7982V88.6041C164.871 88.6041 166.978 87.157 169.437 87.7018L169.883 89.7107Z" fill="black"/>
<path d="M163.945 104.624L165.787 103.065L164.864 89.0297C164.864 89.0297 169.631 85.7678 173.158 90.8717C173.158 90.8717 173.015 93.9907 173.158 94.8419C173.301 95.6931 172.168 96.5444 173.158 97.3922C174.149 98.24 173.158 101.08 173.158 101.08C173.158 101.08 174.279 103.065 174.987 103.63C175.695 104.195 176.407 108.877 174.987 109.868C173.567 110.859 170.904 113.13 170.904 114.121C170.904 115.111 167.499 117.525 167.499 117.525L164.51 113.572L163.945 104.624Z" fill="#FF6484"/>
<path d="M124.107 189.822C117.236 186.907 118.761 179.788 120.055 176.202C120.314 175.476 120.617 174.766 120.964 174.078L124.819 171.739C124.819 171.739 125.605 173.744 126.446 176.434C128.397 182.692 130.641 192.597 124.107 189.822Z" fill="#EFB7B9"/>
<path d="M133.552 254.784C133.087 255.691 132.744 256.655 132.531 257.651C132.191 259.255 132.042 260.892 132.088 262.531C132.115 263.665 132.211 264.407 132.211 264.407L124.557 269.671C124.557 269.671 124.601 269.054 124.676 268.149C124.873 265.738 125.285 261.264 125.673 260.685C125.942 260.283 126.13 258.669 126.249 257.171C126.368 255.673 126.416 254.359 126.416 254.359C126.416 254.359 135.626 250.906 133.552 254.784Z" fill="#EFB7B9"/>
<path d="M151.629 258.561C151.629 258.561 151.629 260.025 151.575 261.727C151.52 263.43 151.418 265.438 151.203 266.375C151.006 267.233 150.992 268.809 151.03 270.263C151.081 271.966 151.203 273.498 151.203 273.498C151.203 273.498 143.389 266.109 144.186 265.524C144.4 265.367 144.612 264.737 144.806 263.899C145.044 262.878 145.258 261.516 145.419 260.358C145.609 258.979 145.728 257.869 145.728 257.869L151.629 258.561Z" fill="#EFB7B9"/>
<path opacity="0.1" d="M133.552 254.784C133.087 255.691 132.744 256.655 132.531 257.651C130.436 257.596 128.345 257.436 126.266 257.171C126.382 255.707 126.433 254.359 126.433 254.359C126.433 254.359 135.626 250.906 133.552 254.784Z" fill="black"/>
<path opacity="0.1" d="M151.629 258.561C151.629 258.561 151.629 260.025 151.575 261.727C149.137 262.35 146.631 261.104 145.419 260.365C145.609 258.986 145.728 257.876 145.728 257.876L151.629 258.561Z" fill="black"/>
<path d="M167.629 186.138C164.51 192.948 163.233 201.024 163.233 201.024L162.099 207.834C162.099 207.834 162.668 210.81 162.099 211.944C161.531 213.078 160.397 214.923 160.397 214.923C160.397 214.923 161.248 221.869 160.397 222.577C159.546 223.286 160.397 227.538 160.397 227.538L157.56 241.839L153.59 260.266C149.763 263.389 144.669 259.419 144.669 259.419L145.793 247.369C145.793 247.369 147.496 226.258 146.787 225.393C146.079 224.528 147.07 221.849 147.07 221.849C147.07 221.849 148.064 219.295 147.356 218.304C146.648 217.313 147.496 215.185 147.496 215.185C147.496 215.185 147.213 206.537 148.064 204.552C148.915 202.567 148.064 190.289 148.064 190.289L147.724 186.465L147.526 184.347L147.509 184.139C147.509 184.139 147.38 184.987 147.169 186.301C146.542 190.302 145.207 198.593 144.68 200.299C144.321 201.528 143.834 202.716 143.226 203.844C143.226 203.844 143.961 208.096 143.226 209.23C142.49 210.364 143.113 211.641 143.113 211.641C143.113 211.641 143.822 215.185 141.694 216.602C139.565 218.018 141.694 218.73 141.694 218.73C141.694 218.73 140.134 222.135 139.569 223.548C139.004 224.961 139.569 226.953 139.569 226.953L138.435 238.434C138.435 238.434 137.441 243.252 137.584 246.514C137.727 249.776 136.307 257.287 136.307 257.287C136.307 257.287 125.391 257.287 123.709 256.01C122.027 254.734 126.518 242.278 126.518 242.278C126.518 242.278 127.795 220.446 127.509 219.881C127.223 219.316 127.509 215.059 128.503 214.212C129.497 213.364 128.503 211.658 128.503 211.658C128.503 211.658 128.22 208.253 128.503 207.405C128.785 206.557 128.459 203.718 128.459 203.718C128.459 203.718 127.509 196.772 127.369 192.801C127.229 188.831 126.518 179.904 126.518 179.904C126.518 179.904 127.26 174.381 127.372 171.752C127.413 170.785 127.846 169.576 128.394 168.439C129.008 167.155 129.713 165.917 130.505 164.735C130.505 164.735 164.094 154.806 165.504 155.793C165.879 156.056 166.423 157.836 166.961 160.414C168.46 167.615 169.924 181.133 167.629 186.138Z" fill="#444053"/>
<path d="M146.934 99.493C152.336 99.493 156.716 95.1133 156.716 89.7106C156.716 84.308 152.336 79.9283 146.934 79.9283C141.531 79.9283 137.151 84.308 137.151 89.7106C137.151 95.1133 141.531 99.493 146.934 99.493Z" fill="#A1616A"/>
<path opacity="0.1" d="M166.961 160.421C165.834 160.999 165.079 161.398 165.079 161.398C165.079 161.398 149.201 168.912 144.686 168.487C141.193 168.146 132.276 168.34 128.391 168.436C129.004 167.152 129.71 165.914 130.502 164.731C130.502 164.731 164.094 154.806 165.504 155.793C165.879 156.062 166.423 157.836 166.961 160.421Z" fill="black"/>
<path d="M140.127 105.332C140.127 105.332 131.067 106.762 128.929 108.165C126.79 109.568 122.555 112.278 122.555 118.091C122.555 123.903 121.564 129.858 120.995 131.557C120.426 133.256 129.926 147.009 129.926 147.009L126.521 167.85C126.521 167.85 140.141 167.425 144.676 167.85C149.212 168.276 165.082 160.761 165.082 160.761C165.082 160.761 174.439 155.8 176.424 155.654C178.409 155.507 172.454 144.738 172.454 144.738C172.454 144.738 163.236 127.304 164.796 124.468C166.355 121.632 167.499 117.522 167.499 117.522L165.797 103.065C165.797 103.065 163.247 102.214 161.119 103.773C158.991 105.332 151.762 104.481 151.762 104.481L140.127 105.332Z" fill="#FF6484"/>
<path opacity="0.1" d="M124.747 130.566L121.193 131.557L120.208 144.898C120.208 144.898 121.485 148.442 120.208 149.576C118.932 150.71 118.649 174.953 118.649 174.953C118.649 174.953 122.762 177.929 127.58 175.661C127.58 175.661 126.872 172.968 129 163.185C131.128 153.403 131.125 148.442 131.125 148.442C131.125 148.442 131.125 136.249 132.119 134.264C133.113 132.279 132.119 127.318 132.119 127.318C132.119 127.318 130.134 124.625 130.273 123.634C130.413 122.643 124.747 130.566 124.747 130.566Z" fill="black"/>
<path opacity="0.1" d="M126.446 176.444C124.359 177.147 122.087 177.065 120.055 176.213C120.314 175.486 120.617 174.777 120.964 174.088L124.819 171.749C124.819 171.749 125.619 173.754 126.446 176.444Z" fill="black"/>
<path d="M124.533 130.566L120.988 131.557L119.997 144.898C119.997 144.898 121.274 148.442 119.997 149.576C118.721 150.71 118.438 174.953 118.438 174.953C118.438 174.953 122.554 177.925 127.369 175.647C127.369 175.647 126.661 172.954 128.785 163.172C130.91 153.389 130.914 148.428 130.914 148.428C130.914 148.428 130.914 136.235 131.904 134.25C132.895 132.265 131.904 127.304 131.904 127.304C131.904 127.304 129.919 124.611 130.062 123.62C130.205 122.629 124.533 130.566 124.533 130.566Z" fill="#FF6484"/>
<path opacity="0.1" d="M160.826 132.691C160.826 132.691 158.984 148.568 153.594 151.547C153.594 151.547 165.644 148.146 160.826 132.691Z" fill="black"/>
<path opacity="0.1" d="M133.75 134.111C133.75 134.111 140.41 137.369 138.857 139.637C137.305 141.905 133.75 134.111 133.75 134.111Z" fill="black"/>
<path opacity="0.1" d="M133.75 140.631C133.75 140.631 138.003 145.027 137.155 146.586C136.307 148.146 133.75 140.631 133.75 140.631Z" fill="black"/>
<path opacity="0.1" d="M168.054 104.199C168.054 104.199 169.723 107.031 169.883 108.877C170.043 110.722 168.054 104.199 168.054 104.199Z" fill="black"/>
<path opacity="0.1" d="M168.054 100.371C168.054 100.371 168.892 99.6599 171.03 100.371C173.169 101.083 168.054 100.371 168.054 100.371Z" fill="black"/>
<path opacity="0.1" d="M159.869 183.23C156.356 183.728 152.775 183.27 149.501 181.902L147.713 186.478L147.516 184.361C147.809 182.583 148.377 180.68 149.501 180.2C149.501 180.2 153.437 183.336 159.869 183.23Z" fill="black"/>
<path opacity="0.1" d="M130.788 189.185C130.788 189.185 139.508 190.993 141.952 190.673L130.788 189.185Z" fill="black"/>
<path opacity="0.1" d="M131.693 191.47C131.693 191.47 135.415 191.31 137.274 192.056L131.693 191.47Z" fill="black"/>
<path opacity="0.1" d="M132.119 193.012C133.817 193.373 135.54 193.601 137.274 193.693L132.119 193.012Z" fill="black"/>
<path opacity="0.1" d="M131.904 212.523C132.064 212.417 139.348 210.715 140.253 211.937L131.904 212.523Z" fill="black"/>
<path opacity="0.1" d="M131.904 214.756C131.904 214.756 138.231 214.011 138.391 214.756C138.551 215.502 131.904 214.756 131.904 214.756Z" fill="black"/>
<path opacity="0.1" d="M131.904 216.775C131.904 216.775 138.656 215.379 139.453 215.72C140.25 216.06 131.904 216.775 131.904 216.775Z" fill="black"/>
<path opacity="0.1" d="M132.224 264.41L124.57 269.674C124.57 269.674 124.614 269.058 124.689 268.152C126.392 263.964 128.608 261.754 128.608 261.754C130.335 261.305 131.424 261.72 132.102 262.534C132.129 263.665 132.224 264.41 132.224 264.41Z" fill="black"/>
<path d="M132.97 269.14C131.888 271.607 131.344 274.277 131.373 276.971C131.416 279.18 130.856 281.359 129.752 283.274C129.593 283.543 129.413 283.8 129.215 284.043C129.215 284.043 123.896 283.999 122.034 282.456C121.824 282.291 121.653 282.082 121.533 281.843C120.467 279.719 123.607 271.584 123.607 271.584C125.255 265.313 128.602 261.962 128.602 261.962C134.564 260.42 132.97 269.14 132.97 269.14Z" fill="#444053"/>
<path opacity="0.1" d="M129.753 283.256C129.593 283.526 129.413 283.783 129.215 284.026C129.215 284.026 123.896 283.982 122.034 282.439C122.949 279.409 125.871 270.239 127.24 271.799C128.527 273.263 129.422 280.308 129.753 283.256Z" fill="black"/>
<path d="M129.024 272.367L128.653 286.103H130.437C130.437 286.103 130.726 274.053 131.523 272.367C132.32 270.682 129.024 272.367 129.024 272.367Z" fill="#444053"/>
<path opacity="0.1" d="M151.203 273.498C151.203 273.498 143.389 266.109 144.186 265.524C144.4 265.367 144.612 264.737 144.806 263.9C146.307 263.637 148.892 264.264 151.03 270.263C151.081 271.966 151.203 273.498 151.203 273.498Z" fill="black"/>
<path d="M152.371 281.738C152.311 281.764 152.249 281.782 152.184 281.792C151.265 281.952 147.877 281.86 145.98 281.792C145.633 281.781 145.303 281.635 145.061 281.385C144.819 281.136 144.684 280.802 144.683 280.454C144.683 279.943 144.683 279.32 144.642 278.656C144.554 276.559 144.302 274.063 143.549 273.501C142.218 272.48 141.166 269.014 143.549 264.625C143.549 264.625 148.119 261.135 151.415 271.625C151.415 271.625 151.735 274.618 153.168 275.68C154.602 276.743 153.011 281.435 152.371 281.738Z" fill="#444053"/>
<path opacity="0.1" d="M152.177 281.792C151.258 281.952 147.87 281.86 145.973 281.792C145.626 281.781 145.297 281.635 145.055 281.385C144.813 281.136 144.677 280.802 144.676 280.454C144.676 279.943 144.676 279.32 144.635 278.656C145.211 276.116 146.038 273.501 147.104 272.906C147.111 272.902 150.335 272.538 152.177 281.792Z" fill="black"/>
<path d="M144.128 272.596L144.986 284.026H146.076V271.622L144.128 272.596Z" fill="#444053"/>
<path opacity="0.1" d="M146.791 74.1229C143.702 74.3529 140.712 75.3133 138.067 76.9252C137.386 77.3372 136.705 77.8377 136.423 78.5766C136.178 79.2167 136.28 79.9385 136.29 80.6195C136.382 86.4828 129.844 90.9194 130.049 96.7793C130.13 99.1048 131.298 101.27 131.513 103.589C131.87 107.457 129.582 111.015 127.389 114.219C129.649 114.357 131.874 113.619 133.603 112.159C135.917 119.872 136.216 128.048 134.472 135.909H137.608C137.917 135.886 138.229 135.924 138.524 136.021C138.799 136.152 139.045 136.336 139.249 136.562C142.18 139.48 144.145 143.794 143.025 147.778L149.699 145.276C151.295 144.676 152.916 144.067 154.305 143.079C155.695 142.092 156.859 140.658 157.152 138.976C157.332 137.955 157.274 136.736 158.115 136.144C158.53 135.923 158.972 135.759 159.43 135.657C161.262 135.01 162.072 132.892 162.447 130.985C162.903 128.646 163.046 126.256 162.872 123.879C162.576 119.895 161.398 115.85 162.368 111.962C162.916 109.779 164.135 107.747 164.234 105.492C164.394 101.778 161.49 98.5771 161.057 94.8827C160.754 92.3086 161.684 89.7039 161.381 87.1297C161.213 85.8011 160.726 84.5327 159.964 83.432C159.201 82.3313 158.184 81.4308 156.999 80.8068C156.178 80.3846 155.296 80.102 154.486 79.6355C152.637 78.563 151.455 76.6324 149.777 75.3045C148.098 73.9765 145.303 73.476 144.04 75.2023L146.791 74.1229Z" fill="black"/>
<path d="M146.791 73.6973C143.702 73.9272 140.712 74.8877 138.067 76.4996C137.386 76.9115 136.705 77.4121 136.423 78.1509C136.178 78.7911 136.28 79.5129 136.29 80.1939C136.382 86.0572 129.844 90.4938 130.049 96.357C130.13 98.6792 131.298 100.845 131.513 103.167C131.87 107.035 129.582 110.593 127.389 113.8C129.648 113.933 131.871 113.196 133.603 111.74C135.917 119.45 136.216 127.625 134.472 135.483H137.608C137.918 135.461 138.229 135.501 138.524 135.599C138.799 135.727 139.046 135.91 139.249 136.137C142.18 139.058 144.145 143.369 143.025 147.353L149.699 144.85C151.295 144.251 152.916 143.641 154.305 142.654C155.695 141.666 156.859 140.233 157.152 138.551C157.332 137.529 157.274 136.31 158.115 135.718C158.53 135.498 158.972 135.334 159.43 135.231C161.262 134.584 162.072 132.466 162.447 130.559C162.907 128.218 163.053 125.826 162.882 123.447C162.586 119.463 161.408 115.418 162.378 111.529C162.927 109.347 164.146 107.314 164.244 105.06C164.404 101.345 161.5 98.1446 161.068 94.4503C160.765 91.8762 161.694 89.2748 161.391 86.6973C161.222 85.3689 160.736 84.1007 159.973 83C159.21 81.8994 158.194 80.9988 157.009 80.3744C156.188 79.9521 155.306 79.6695 154.496 79.2065C152.647 78.1305 151.466 76.1999 149.787 74.872C148.108 73.5441 145.313 73.0436 144.05 74.7699L146.791 73.6973Z" fill="#925978"/>
<g opacity="0.1">
<path opacity="0.1" d="M136.283 78.7774C136.269 78.9086 136.263 79.0405 136.263 79.1724C136.273 79.043 136.28 78.9102 136.283 78.7774Z" fill="black"/>
<path opacity="0.1" d="M161.03 92.4073C161.153 90.6027 161.554 88.7913 161.405 86.9935C161.292 88.7981 160.89 90.6095 161.03 92.4073Z" fill="black"/>
<path opacity="0.1" d="M131.513 101.379C131.315 99.2682 130.331 97.2934 130.1 95.1857C130.054 95.5721 130.037 95.9613 130.049 96.3502C130.13 98.6485 131.271 100.797 131.503 103.085C131.559 102.518 131.562 101.947 131.513 101.379Z" fill="black"/>
<path opacity="0.1" d="M162.392 109.766C162.073 111.151 161.959 112.576 162.052 113.995C162.086 113.167 162.2 112.345 162.392 111.54C162.94 109.357 164.159 107.324 164.258 105.07C164.274 104.67 164.256 104.269 164.203 103.872C163.938 105.898 162.879 107.784 162.392 109.766Z" fill="black"/>
<path opacity="0.1" d="M133.603 109.949C132.183 111.14 130.426 111.854 128.578 111.992C128.19 112.599 127.788 113.191 127.39 113.777C129.648 113.909 131.871 113.172 133.603 111.717C134.847 115.856 135.514 120.147 135.585 124.468C135.686 119.555 135.018 114.656 133.603 109.949V109.949Z" fill="black"/>
<path opacity="0.1" d="M162.457 128.775C162.082 130.682 161.272 132.8 159.44 133.443C158.981 133.546 158.539 133.711 158.126 133.934C157.285 134.526 157.343 135.752 157.162 136.767C156.869 138.449 155.708 139.879 154.316 140.853C152.923 141.826 151.306 142.453 149.709 143.052L143.342 145.436C143.308 146.075 143.206 146.708 143.035 147.325L149.709 144.823C151.306 144.223 152.926 143.614 154.316 142.626C155.705 141.639 156.869 140.206 157.162 138.524C157.343 137.502 157.285 136.283 158.126 135.691C158.54 135.47 158.982 135.307 159.44 135.204C161.272 134.557 162.082 132.439 162.457 130.532C162.844 128.548 163.005 126.526 162.937 124.505C162.892 125.939 162.731 127.367 162.457 128.775V128.775Z" fill="black"/>
<path opacity="0.1" d="M139.259 134.342C139.056 134.115 138.81 133.93 138.534 133.801C138.239 133.704 137.928 133.665 137.618 133.685H134.836C134.727 134.278 134.611 134.87 134.496 135.459H137.631C137.941 135.438 138.253 135.477 138.547 135.575C138.823 135.703 139.07 135.886 139.273 136.113C141.418 138.251 143.042 141.132 143.321 144.087C143.665 140.553 141.833 136.916 139.259 134.342Z" fill="black"/>
</g>
<path opacity="0.1" d="M123.702 145.946C123.702 145.946 126.235 144.884 126.8 145.946C127.366 147.009 123.702 145.946 123.702 145.946Z" fill="black"/>
<path opacity="0.1" d="M124.597 147.768C124.597 147.768 127.131 146.706 127.699 147.768C128.268 148.83 124.597 147.768 124.597 147.768Z" fill="black"/>
<path opacity="0.1" d="M281.602 10.2943C281.602 10.2943 268.646 9.51461 270.175 18.5921C270.175 18.5921 269.872 20.1958 271.326 20.9245C271.326 20.9245 271.349 20.2435 272.653 20.4784C273.118 20.5566 273.59 20.5795 274.06 20.5465C274.694 20.5026 275.297 20.2527 275.776 19.8349V19.8349C275.776 19.8349 279.416 18.3333 280.832 12.3815C280.832 12.3815 281.881 11.0809 281.854 10.7472L279.668 11.6835C279.668 11.6835 280.413 13.26 279.824 14.5709C279.824 14.5709 279.756 11.738 279.334 11.8061C279.249 11.8061 278.2 12.3509 278.2 12.3509C278.2 12.3509 279.484 15.0987 278.513 17.0974C278.513 17.0974 278.881 13.7129 277.798 12.5518L276.252 13.4677C276.252 13.4677 277.754 16.304 276.736 18.6194C276.736 18.6194 276.998 15.068 275.929 13.6856L274.533 14.7718C274.533 14.7718 275.946 17.5536 275.095 19.474C275.095 19.474 274.982 15.337 274.24 15.0272C274.24 15.0272 273.021 16.1031 272.837 16.5458C272.837 16.5458 273.801 18.5887 273.202 19.6442C273.202 19.6442 272.834 16.8931 272.521 16.8794C272.521 16.8794 271.305 18.7045 271.179 19.9439C271.238 18.7874 271.599 17.6664 272.224 16.6922C271.523 16.8249 270.877 17.1612 270.365 17.6592C270.365 17.6592 270.553 16.3687 272.524 16.2529C272.524 16.2529 273.529 14.8705 273.798 14.7854C273.798 14.7854 271.836 14.622 270.648 15.1497C270.648 15.1497 271.693 13.9308 274.158 14.4688L275.52 13.3451C275.52 13.3451 272.939 13.0046 271.843 13.3826C271.843 13.3826 273.103 12.3066 275.892 13.0898L277.39 12.1943C277.39 12.1943 275.19 11.7176 273.879 11.8912C273.879 11.8912 275.262 11.1456 277.829 11.9525L278.901 11.4724C278.901 11.4724 277.288 11.1558 276.818 11.1047C276.348 11.0536 276.321 10.9242 276.321 10.9242C277.342 10.7543 278.39 10.8722 279.348 11.2647C279.348 11.2647 281.639 10.4373 281.602 10.2943Z" fill="#34495E"/>
<path opacity="0.1" d="M263.137 2.93289C263.137 2.93289 252.241 9.98448 258.85 16.3891C258.85 16.3891 259.555 17.8601 261.158 17.5877C261.158 17.5877 260.777 17.0293 261.965 16.4402C262.387 16.2281 262.781 15.9663 263.14 15.6605C263.625 15.249 263.964 14.6909 264.104 14.0704V14.0704C264.104 14.0704 266.147 10.6995 263.763 5.06778C263.763 5.06778 263.838 3.39937 263.607 3.15421L262.401 5.19716C262.401 5.19716 263.937 6.02456 264.24 7.42738C264.24 7.42738 262.507 5.19035 262.197 5.49339C262.136 5.55468 261.604 6.6068 261.604 6.6068C261.604 6.6068 264.271 8.0573 264.669 10.2398C264.669 10.2398 262.966 7.29459 261.397 7.00518L260.689 8.63954C260.689 8.63954 263.583 10.0356 264.134 12.5041C264.134 12.5041 262.238 9.48736 260.559 9.00727L260.082 10.7097C260.082 10.7097 262.875 12.1262 263.321 14.1827C263.321 14.1827 260.78 10.9208 259.997 11.1183C259.997 11.1183 259.657 12.705 259.766 13.1613C259.766 13.1613 261.747 14.2236 261.897 15.4426C261.897 15.4426 259.97 13.4439 259.722 13.6107C259.722 13.6107 259.824 15.8001 260.46 16.8828C259.824 15.9161 259.451 14.8 259.378 13.6448C258.892 14.1671 258.57 14.8206 258.452 15.5243C258.452 15.5243 257.839 14.3734 259.361 13.1136C259.361 13.1136 259.361 11.4111 259.514 11.1762C259.514 11.1762 257.839 12.1977 257.192 13.3349C257.192 13.3349 257.314 11.7346 259.626 10.7199L260.069 9.00046C260.069 9.00046 257.781 10.2467 257.13 11.2102C257.13 11.2102 257.508 9.59632 260.215 8.57484L260.896 6.96432C260.896 6.96432 258.853 7.88705 257.886 8.80297C257.886 8.80297 258.567 7.37972 261.107 6.51146L261.686 5.48999C261.686 5.48999 260.198 6.1914 259.79 6.42974C259.381 6.66809 259.282 6.57956 259.282 6.57956C260.004 5.83733 260.917 5.31036 261.921 5.05756C261.921 5.05756 263.252 3.02823 263.137 2.93289Z" fill="#34495E"/>
<path opacity="0.1" d="M246.555 11.1489C246.555 11.1489 240.041 22.3852 248.836 25.0853C248.836 25.0853 250.133 26.0761 251.437 25.0853C251.437 25.0853 250.848 24.7652 251.638 23.6995C251.913 23.3191 252.141 22.9077 252.319 22.4737C252.565 21.8865 252.614 21.2354 252.459 20.618V20.618C252.459 20.618 252.748 16.6887 248.067 12.7493C248.067 12.7493 247.386 11.2307 247.045 11.1183L246.899 13.5017C246.899 13.5017 248.642 13.5426 249.551 14.656C249.551 14.656 246.991 13.4473 246.861 13.8525C246.834 13.9342 246.837 15.1123 246.837 15.1123C246.837 15.1123 249.898 15.2042 251.26 16.968C251.26 16.968 248.4 15.1191 246.878 15.5685L246.987 17.3459C246.987 17.3459 250.198 17.2778 251.809 19.2288C251.809 19.2288 248.744 17.4004 247.042 17.7341L247.382 19.4672C247.382 19.4672 250.515 19.4672 251.843 21.0947C251.843 21.0947 248.097 19.3378 247.488 19.8587C247.488 19.8587 247.9 21.4318 248.213 21.7961C248.213 21.7961 250.46 21.8438 251.148 22.8619C251.148 22.8619 248.523 21.9528 248.376 22.2183C248.376 22.2183 249.463 24.1217 250.521 24.7959C249.517 24.2263 248.678 23.4048 248.087 22.4124C247.891 23.0981 247.901 23.8261 248.114 24.5064C248.114 24.5064 247.045 23.7608 247.828 21.9459C247.828 21.9459 247.045 20.4273 247.089 20.1516C247.089 20.1516 246.068 21.8302 246 23.1275C246 23.1275 245.38 21.6463 246.98 19.6953L246.596 17.9588C246.596 17.9588 245.121 20.1073 244.978 21.2616C244.978 21.2616 244.583 19.651 246.534 17.5161L246.405 15.7762C246.405 15.7762 244.995 17.5298 244.559 18.7794C244.559 18.7794 244.512 17.2063 246.388 15.2757L246.439 14.101C246.439 14.101 245.418 15.3983 245.176 15.8035C244.934 16.2087 244.791 16.1508 244.791 16.1508C245.098 15.1612 245.673 14.2761 246.453 13.5937C246.453 13.5937 246.698 11.1796 246.555 11.1489Z" fill="#34495E"/>
<path d="M302.481 139.235C301.517 139.235 300.575 139.521 299.774 140.056C298.972 140.592 298.348 141.353 297.979 142.243C297.61 143.133 297.514 144.113 297.702 145.058C297.89 146.003 298.354 146.872 299.035 147.553C299.717 148.234 300.585 148.699 301.53 148.887C302.475 149.075 303.455 148.978 304.345 148.609C305.235 148.24 305.996 147.616 306.532 146.815C307.067 146.013 307.353 145.071 307.353 144.108C307.349 142.817 306.835 141.579 305.922 140.666C305.009 139.753 303.772 139.239 302.481 139.235V139.235ZM288.234 101.001V105.874H293.107L301.878 123.641L298.211 129.61C297.81 130.316 297.6 131.113 297.601 131.925C297.601 135.187 299.831 136.797 302.855 136.797H331.344V132.112H303.451C303.37 132.117 303.288 132.105 303.212 132.076C303.136 132.047 303.067 132.002 303.009 131.945C302.951 131.887 302.907 131.818 302.878 131.742C302.849 131.665 302.836 131.584 302.841 131.503C302.906 131.292 302.992 131.089 303.1 130.897L305.535 127.052H323.686C324.563 127.06 325.425 126.825 326.178 126.374C326.93 125.922 327.543 125.273 327.949 124.495L336.724 109.408C336.895 109.025 336.979 108.609 336.969 108.189C336.966 107.876 336.899 107.566 336.774 107.279C336.649 106.991 336.467 106.732 336.24 106.516C336.012 106.3 335.744 106.132 335.45 106.022C335.157 105.911 334.844 105.861 334.531 105.874H298.47L296.154 101.001H288.234ZM326.468 139.235C325.505 139.236 324.563 139.522 323.762 140.058C322.961 140.594 322.337 141.355 321.969 142.245C321.601 143.136 321.505 144.115 321.693 145.06C321.882 146.005 322.346 146.873 323.027 147.554C323.709 148.235 324.577 148.699 325.522 148.887C326.467 149.075 327.447 148.978 328.337 148.609C329.227 148.24 329.988 147.616 330.523 146.814C331.058 146.013 331.344 145.071 331.344 144.108C331.34 142.816 330.825 141.578 329.912 140.665C328.998 139.752 327.76 139.238 326.468 139.235V139.235Z" fill="#34495E"/>
<path d="M320.234 114.481H316.148V110.396H313.083V114.481H308.998V117.546H313.083V121.632H316.148V117.546H320.234V114.481Z" fill="white"/>
<defs>
<linearGradient id="paint0_linear" x1="208.467" y1="201.501" x2="208.467" y2="32.5353" gradientUnits="userSpaceOnUse">
<stop stop-color="#808080" stop-opacity="0.25"/>
<stop offset="0.54" stop-color="#808080" stop-opacity="0.12"/>
<stop offset="1" stop-color="#808080" stop-opacity="0.1"/>
</linearGradient>
</defs>
</svg>
