<svg width="400" height="380" viewBox="0 0 400 380" fill="none" xmlns="http://www.w3.org/2000/svg">
<path d="M243.169 90.0767H241.086V33.0218C241.086 24.2639 237.607 15.8647 231.414 9.67188C225.221 3.47909 216.822 1.10508e-05 208.064 1.0516e-10H87.1857C82.8492 -1.09434e-05 78.5552 0.854112 74.5488 2.5136C70.5424 4.17309 66.9021 6.60546 63.8357 9.67181C60.7694 12.7382 58.337 16.3784 56.6775 20.3848C55.018 24.3912 54.1638 28.6852 54.1638 33.0217V346.029C54.1638 350.366 55.018 354.66 56.6774 358.666C58.3369 362.673 60.7693 366.313 63.8357 369.379C66.902 372.446 70.5423 374.878 74.5487 376.537C78.5551 378.197 82.8491 379.051 87.1856 379.051H208.064C216.822 379.051 225.221 375.572 231.414 369.379C237.607 363.186 241.086 354.787 241.086 346.029V130.689H243.169L243.169 90.0767Z" fill="#3F3D56"/>
<path d="M209.397 8.59114H193.618C194.344 10.3701 194.621 12.3003 194.424 14.2115C194.228 16.1227 193.565 17.9564 192.494 19.5511C191.422 21.1457 189.975 22.4523 188.279 23.3558C186.583 24.2593 184.692 24.7319 182.77 24.732H113.521C111.599 24.7319 109.708 24.2593 108.012 23.3558C106.317 22.4523 104.869 21.1457 103.797 19.5511C102.726 17.9565 102.063 16.1227 101.867 14.2115C101.671 12.3003 101.948 10.3701 102.673 8.59114H87.936C81.3956 8.59114 75.1232 11.1893 70.4985 15.814C65.8738 20.4387 63.2756 26.7111 63.2756 33.2514V345.8C63.2756 349.038 63.9135 352.245 65.1528 355.237C66.3921 358.229 68.2086 360.947 70.4985 363.237C72.7884 365.527 75.5069 367.344 78.4989 368.583C81.4908 369.822 84.6975 370.46 87.936 370.46H209.397C212.635 370.46 215.842 369.822 218.834 368.583C221.826 367.344 224.544 365.527 226.834 363.237C229.124 360.947 230.94 358.229 232.18 355.237C233.419 352.245 234.057 349.038 234.057 345.8V345.8V33.2514C234.057 30.013 233.419 26.8062 232.18 23.8143C230.94 20.8224 229.124 18.1039 226.834 15.814C224.544 13.524 221.826 11.7076 218.834 10.4683C215.842 9.22899 212.635 8.59114 209.397 8.59114V8.59114Z" fill="white"/>
<path d="M148.456 66.7955H77.8291V187.45H148.456V66.7955Z" fill="#E6E6E6"/>
<path d="M219.291 196.901H160.59V333.499H219.291V196.901Z" fill="#E6E6E6"/>
<path d="M219.503 66.7955H160.647V100.007H219.503V66.7955Z" fill="#E6E6E6"/>
<path d="M219.503 109.256H160.647V144.99H219.503V109.256Z" fill="#34495E"/>
<path d="M219.503 154.239H160.647V187.45H219.503V154.239Z" fill="#E6E6E6"/>
<path d="M148.543 196.901H77.9163V249.482H148.543V196.901Z" fill="#E6E6E6"/>
<path d="M148.543 259.675H77.9163V333.61H148.543V259.675Z" fill="#E6E6E6"/>
<path d="M308.969 149.989C308.969 161.471 298.353 159.734 285.256 159.734C272.16 159.734 261.543 161.471 261.543 149.989C261.543 138.508 266.729 118.155 285.256 118.155C304.422 118.155 308.969 138.508 308.969 149.989Z" fill="#2F2E41"/>
<path d="M218.345 129.109C217.921 129.965 217.691 130.904 217.67 131.859C217.649 132.814 217.837 133.761 218.222 134.636C218.607 135.51 219.178 136.289 219.897 136.918C220.615 137.547 221.463 138.012 222.38 138.278L223.575 161.463L233.291 154.312L230.667 133.391C231.012 131.821 230.769 130.178 229.984 128.775C229.199 127.371 227.927 126.305 226.408 125.777C224.889 125.249 223.229 125.297 221.743 125.911C220.257 126.525 219.048 127.663 218.345 129.109V129.109Z" fill="#FFB8B8"/>
<path d="M324.86 260.138C325.388 259.342 325.734 258.439 325.875 257.495C326.015 256.55 325.947 255.586 325.675 254.67C325.403 253.755 324.934 252.91 324.3 252.196C323.666 251.481 322.883 250.915 322.007 250.535L323.729 227.383L313.193 233.259L313.172 254.344C312.633 255.859 312.668 257.519 313.271 259.01C313.874 260.501 315.002 261.718 316.443 262.433C317.884 263.147 319.536 263.308 321.088 262.885C322.639 262.462 323.981 261.484 324.86 260.138V260.138Z" fill="#FFB8B8"/>
<path d="M276.337 371.586H284.302L288.091 340.864L276.335 340.865L276.337 371.586Z" fill="#FFB8B8"/>
<path d="M274.305 368.986L289.991 368.985H289.991C291.304 368.985 292.604 369.244 293.817 369.746C295.03 370.248 296.132 370.985 297.06 371.913C297.988 372.841 298.724 373.943 299.227 375.156C299.729 376.369 299.988 377.668 299.988 378.981V379.306L274.306 379.307L274.305 368.986Z" fill="#2F2E41"/>
<path d="M327.011 371.586H334.976L338.765 340.864L327.01 340.865L327.011 371.586Z" fill="#FFB8B8"/>
<path d="M324.98 368.986L340.666 368.985H340.666C341.979 368.985 343.279 369.244 344.492 369.746C345.704 370.248 346.806 370.985 347.735 371.913C348.663 372.841 349.399 373.943 349.902 375.156C350.404 376.369 350.662 377.668 350.662 378.981V379.306L324.98 379.307L324.98 368.986Z" fill="#2F2E41"/>
<path d="M322.466 247.382L322.119 247.319C319.218 246.794 316.282 246.263 313.7 245.707L313.445 245.652L313.444 245.391C313.399 233.615 313.355 221.841 313.29 209.96C307.123 197.531 304.531 183.633 305.802 169.817L305.816 169.671L305.936 169.586C307.06 168.805 308.371 168.338 309.735 168.233C311.099 168.127 312.467 168.387 313.697 168.985C314.901 169.643 315.93 170.579 316.698 171.716C317.467 172.852 317.952 174.156 318.115 175.518C320.462 188.313 322.893 201.564 325.604 214.621L325.614 214.668L325.609 214.717C324.605 225.366 323.566 236.377 322.501 247.032L322.466 247.382Z" fill="#34495E"/>
<path d="M317.273 360.637L317.21 360.337C313.484 342.712 309.887 328.36 306.408 314.48C302.24 297.846 298.289 282.084 294.301 261.686C294.849 287.409 296.121 305.889 297.583 327.131C298.244 336.722 298.926 346.641 299.619 358.219L299.64 358.573L299.287 358.564C286.821 358.245 274.049 357.475 261.698 356.73L261.371 356.711L261.394 356.384C263.732 321.916 264.465 299.519 265 283.165C266.129 248.661 266.302 243.358 279.154 214.158C279.642 213.05 282.548 209.777 285.744 210.275L311.03 214.211L311.075 214.434C311.789 218.028 315.329 228.934 320.23 244.029C330.707 276.297 346.539 325.062 351.485 354.13L351.541 354.46L351.211 354.507C344.027 355.527 338.856 356.591 333.856 357.619C329.126 358.592 324.234 359.597 317.575 360.591L317.273 360.637Z" fill="#2F2E41"/>
<path d="M295.296 223.332C288.547 223.333 281.876 220.991 277.094 216.431C276.346 215.997 275.714 215.389 275.251 214.659C274.787 213.928 274.506 213.098 274.431 212.236C274.308 211.447 274.36 210.641 274.582 209.874C274.804 209.107 275.191 208.397 275.716 207.796C271.028 202.121 266.187 196.255 261.553 190.283L261.425 190.118L261.573 189.835C264.605 184.042 267.74 178.053 270.751 172.135C270.96 171.619 271.305 171.169 271.749 170.833C272.193 170.497 272.719 170.287 273.273 170.225C273.753 170.134 274.247 170.142 274.725 170.249C275.202 170.356 275.653 170.559 276.049 170.846L276.055 170.702C276.181 167.706 276.307 164.71 276.436 161.87L276.45 161.567L276.754 161.56C282.542 161.432 288.528 161.3 294.408 160.951L294.631 160.938L297.547 167.443C302.284 166.983 307.05 167.95 311.232 170.221L311.424 170.323L311.402 170.54C310.229 181.72 310.484 193.003 312.161 204.119C312.07 209.194 311.972 214.381 310.943 218.516L310.913 218.636L310.809 218.706C306.213 221.756 300.812 223.367 295.296 223.332V223.332Z" fill="#34495E"/>
<path d="M270.453 195.111L270.065 194.932C265.53 192.657 260.981 190.133 256.581 187.693L255.974 187.574C244.39 185.249 238.01 183.969 227.559 177.84L227.479 177.793L227.436 177.71C222.203 167.715 220.744 158.977 222.051 145.472L222.077 145.201L222.348 145.18C223.481 145.088 225.327 145.026 227.112 144.966C228.85 144.909 230.646 144.848 231.747 144.762L232.003 144.742L232.082 144.985C233.451 149.214 234.614 153.159 235.846 157.336C237.112 161.629 238.42 166.066 240.014 170.997C245.849 172.673 261.492 172.172 266.356 171.51C269.162 171.222 271.998 172.519 273.955 174.965L274.045 175.078L274.022 175.221C272.951 181.756 271.721 188.329 270.532 194.686L270.453 195.111Z" fill="#34495E"/>
<path d="M298.966 150.799C303.193 143.066 300.351 133.371 292.618 129.143C284.886 124.916 275.19 127.758 270.963 135.491C266.736 143.224 269.578 152.919 277.311 157.146C285.044 161.373 294.739 158.531 298.966 150.799Z" fill="#FFB8B8"/>
<path d="M266.74 142.193H273.052L275.836 134.397L276.393 142.193H279.409L281.033 137.645L281.358 142.193H303.772C303.772 137.713 301.992 133.417 298.825 130.249C295.657 127.081 291.36 125.302 286.88 125.302H283.632C279.152 125.302 274.856 127.081 271.688 130.249C268.52 133.417 266.74 137.713 266.74 142.193Z" fill="#2F2E41"/>
<path d="M399.479 379.614H0.520833C0.3827 379.614 0.250223 379.559 0.152548 379.461C0.054873 379.363 0 379.231 0 379.093C0 378.955 0.054873 378.822 0.152548 378.724C0.250223 378.627 0.3827 378.572 0.520833 378.572H399.479C399.617 378.572 399.75 378.627 399.847 378.724C399.945 378.822 400 378.955 400 379.093C400 379.231 399.945 379.363 399.847 379.461C399.75 379.559 399.617 379.614 399.479 379.614Z" fill="#3F3D56"/>
</svg>
