<svg width="400" height="323" viewBox="0 0 400 323" fill="none" xmlns="http://www.w3.org/2000/svg">
<path d="M202.375 322.269C311.52 322.269 400 315.357 400 306.83C400 298.303 311.52 291.39 202.375 291.39C93.2302 291.39 4.75061 298.303 4.75061 306.83C4.75061 315.357 93.2302 322.269 202.375 322.269Z" fill="#3F3D56"/>
<path d="M370.247 278.147L372.099 291.731L359.133 292.965L360.985 276.295L370.247 278.147Z" fill="#A0616A"/>
<path d="M309.122 91.6868C309.122 91.6868 310.357 108.357 310.357 108.975C310.357 109.592 301.713 152.194 301.713 152.194C301.713 152.194 289.364 175.656 301.713 175.038C314.061 174.421 310.357 152.811 310.357 152.811L323.322 117.001L317.766 91.6868L309.122 91.6868Z" fill="#A0616A"/>
<path d="M329.497 278.147L327.645 291.731L340.61 292.965L338.758 276.295L329.497 278.147Z" fill="#A0616A"/>
<path d="M315.296 150.959L312.209 155.281C312.209 155.281 310.357 173.804 312.209 179.978C314.061 186.152 317.766 214.553 317.766 216.405C317.766 218.258 318.383 219.493 317.766 220.11C317.148 220.727 315.296 220.727 316.531 221.962C317.766 223.197 317.766 226.902 317.766 226.902V229.989L325.792 275.678C325.792 275.678 320.853 281.234 324.557 281.234C328.262 281.234 341.845 281.234 341.228 275.06L339.993 274.443C339.993 274.443 338.141 233.693 338.758 231.841C339.375 229.989 338.758 226.284 338.758 226.284C338.758 226.284 337.523 224.432 338.758 223.815C339.993 223.197 339.993 218.258 339.993 218.258L345.55 180.595C345.55 180.595 350.489 205.909 353.576 208.379C356.663 210.849 356.046 217.023 356.046 217.023L358.515 271.356C358.515 271.356 356.046 277.53 358.515 278.765C360.985 280 371.481 284.322 372.099 278.147C372.716 271.973 375.803 218.258 375.803 215.788C375.803 213.318 375.186 212.084 375.803 210.231C376.421 208.379 375.186 208.379 375.803 208.379C376.421 208.379 374.568 206.527 374.568 205.292V175.038C374.568 175.038 375.186 168.864 375.803 167.629C376.421 166.395 375.186 165.16 375.803 163.307C376.421 161.455 374.568 155.281 374.568 155.281L346.784 147.872L315.296 150.959Z" fill="#2F2E41"/>
<path d="M336.906 289.261C336.906 289.261 339.993 286.174 335.671 286.174C332.896 286.23 330.163 286.861 327.644 288.026L324.557 299.14C324.557 299.14 311.9 309.327 326.101 308.092C340.301 306.857 338.14 307.783 338.14 307.783C338.14 307.783 342.462 306.549 343.08 305.314C343.697 304.079 341.845 286.174 341.845 286.174C341.845 286.174 339.993 291.113 336.906 289.261Z" fill="#2F2E41"/>
<path d="M363.455 289.261C363.455 289.261 360.368 286.174 364.69 286.174C367.464 286.23 370.197 286.861 372.716 288.026L375.803 299.14C375.803 299.14 388.46 309.327 374.26 308.092C360.059 306.857 360.368 307.784 360.368 307.784C360.368 307.784 356.046 306.549 355.428 305.314C354.811 304.079 358.515 286.174 358.515 286.174C358.515 286.174 360.368 291.113 363.455 289.261Z" fill="#2F2E41"/>
<path d="M323.322 42.9106C332.188 42.9106 339.375 35.7235 339.375 26.8577C339.375 17.9919 332.188 10.8048 323.322 10.8048C314.457 10.8048 307.27 17.9919 307.27 26.8577C307.27 35.7235 314.457 42.9106 323.322 42.9106Z" fill="#A0616A"/>
<path d="M317.766 38.5886C317.766 38.5886 320.236 50.937 320.236 52.7893C320.236 54.6415 330.732 60.1983 330.732 60.1983L342.463 45.3802C342.463 45.3802 335.054 34.8841 335.054 32.4144L317.766 38.5886Z" fill="#A0616A"/>
<path d="M327.027 54.6416C327.027 54.6416 321.646 53.2093 320.015 50.8383C320.015 50.8383 302.948 67.6074 302.948 70.6945L316.531 94.7738C316.531 94.7738 316.531 103.418 317.766 104.035C319.001 104.653 317.766 104.035 317.766 106.505C317.766 108.974 314.061 125.027 315.296 127.497C316.531 129.967 317.766 128.114 316.531 131.819C315.296 135.524 312.209 155.281 312.209 155.281C312.209 155.281 323.323 151.576 339.376 157.751C355.428 163.925 374.568 155.281 374.568 155.281C374.568 155.281 369.629 144.167 370.864 140.463C372.099 136.758 367.777 129.967 367.777 129.967L364.69 73.1642C364.69 73.1642 369.012 47.85 365.925 46.6151L359.75 44.1454L339.978 41.7153C339.978 41.7153 335.054 54.0242 327.027 54.6416Z" fill="#D0CDE1"/>
<path d="M309.122 66.3726L302.948 70.6945C302.948 70.6945 299.861 79.9558 302.948 84.2777C306.035 88.5997 307.27 94.7738 307.27 94.7738L319.618 93.539L309.122 66.3726Z" fill="#D0CDE1"/>
<path d="M311.066 9.89257L308.282 8.77778C308.282 8.77778 314.104 2.3678 322.204 2.9252L319.926 0.416917C319.926 0.416917 325.495 -1.81262 330.558 4.03995C333.22 7.11653 336.299 10.7329 338.219 14.8066H341.201L339.956 17.5471L344.312 20.2876L339.841 19.7954C340.264 22.1613 340.12 24.594 339.418 26.893L339.538 29.0591C339.538 29.0591 334.355 21.0403 334.355 19.9256V22.7125C334.355 22.7125 331.571 20.2043 331.571 18.5321L330.052 20.483L329.292 17.4173L319.926 20.483L321.445 17.9747L315.623 18.8108L317.901 15.7452C317.901 15.7452 311.319 19.3682 311.066 22.4339C310.813 25.4995 307.522 29.4012 307.522 29.4012L306.003 26.6143C306.003 26.6143 303.725 14.073 311.066 9.89257Z" fill="#2F2E41"/>
<path d="M314.789 134.362H69.439V306.713H314.789V134.362Z" fill="#F2F2F2"/>
<path d="M151.697 200.122H90.0925V307.663H151.697V200.122Z" fill="#3F3D56"/>
<path d="M118.082 206.573H101.488V222.043H118.082V206.573Z" fill="#F2F2F2"/>
<path d="M140.302 206.573H123.708V222.043H140.302V206.573Z" fill="#F2F2F2"/>
<path d="M118.082 227.668H101.488V243.7H118.082V227.668Z" fill="#F2F2F2"/>
<path d="M140.302 227.668H123.708V243.7H140.302V227.668Z" fill="#F2F2F2"/>
<path d="M143.863 265.049C146.027 265.049 147.78 263.296 147.78 261.132C147.78 258.969 146.027 257.215 143.863 257.215C141.7 257.215 139.946 258.969 139.946 261.132C139.946 263.296 141.7 265.049 143.863 265.049Z" fill="#34495E"/>
<path d="M294.136 189.913H172.351V292.113H294.136V189.913Z" fill="#3F3D56"/>
<path d="M340.429 166.81H43.8L63.5777 125.459L68.0038 116.201L73.7944 104.094L78.2205 94.8352L83.3516 84.1097H317.058L320.088 94.8352L322.706 104.094L326.128 116.201L328.745 125.459L340.429 166.81Z" fill="#3F3D56"/>
<path d="M180.897 232.288H176.624V258.64H180.897V232.288Z" fill="#34495E"/>
<path d="M180.897 236.206H176.624V239.411H180.897V236.206Z" fill="#F2F2F2"/>
<path d="M180.897 251.518H176.624V254.723H180.897V251.518Z" fill="#F2F2F2"/>
<path d="M193.36 232.288H183.034V258.64H193.36V232.288Z" fill="#34495E"/>
<path d="M193.36 236.206H183.034V239.411H193.36V236.206Z" fill="#F2F2F2"/>
<path d="M193.36 251.518H183.034V254.723H193.36V251.518Z" fill="#F2F2F2"/>
<path d="M200.126 232.288H195.853V258.64H200.126V232.288Z" fill="#34495E"/>
<path d="M200.126 236.206H195.853V239.411H200.126V236.206Z" fill="#F2F2F2"/>
<path d="M200.126 251.518H195.853V254.723H200.126V251.518Z" fill="#F2F2F2"/>
<path d="M206.536 232.288H202.263V258.64H206.536V232.288Z" fill="#34495E"/>
<path d="M206.536 236.206H202.263V239.411H206.536V236.206Z" fill="#F2F2F2"/>
<path d="M206.536 251.518H202.263V254.723H206.536V251.518Z" fill="#F2F2F2"/>
<path d="M210.654 232.382L206.655 233.889L215.95 258.547L219.949 257.039L210.654 232.382Z" fill="#34495E"/>
<path d="M212.036 236.047L208.037 237.554L209.168 240.553L213.166 239.046L212.036 236.047Z" fill="#F2F2F2"/>
<path d="M217.437 250.375L213.438 251.882L214.568 254.881L218.567 253.374L217.437 250.375Z" fill="#F2F2F2"/>
<path d="M290.219 232.288H279.892V258.64H290.219V232.288Z" fill="#34495E"/>
<path d="M290.219 236.206H279.892V239.411H290.219V236.206Z" fill="#F2F2F2"/>
<path d="M290.219 251.518H279.892V254.723H290.219V251.518Z" fill="#F2F2F2"/>
<path d="M277.399 232.288H273.126V258.64H277.399V232.288Z" fill="#34495E"/>
<path d="M277.399 236.206H273.126V239.411H277.399V236.206Z" fill="#F2F2F2"/>
<path d="M277.399 251.518H273.126V254.723H277.399V251.518Z" fill="#F2F2F2"/>
<path d="M270.99 232.288H266.717V258.64H270.99V232.288Z" fill="#34495E"/>
<path d="M270.99 236.206H266.717V239.411H270.99V236.206Z" fill="#F2F2F2"/>
<path d="M270.99 251.518H266.717V254.723H270.99V251.518Z" fill="#F2F2F2"/>
<path d="M262.599 232.382L253.304 257.039L257.303 258.546L266.597 233.889L262.599 232.382Z" fill="#34495E"/>
<path d="M261.217 236.047L260.087 239.046L264.085 240.553L265.216 237.554L261.217 236.047Z" fill="#F2F2F2"/>
<path d="M255.816 250.375L254.686 253.374L258.684 254.881L259.814 251.882L255.816 250.375Z" fill="#F2F2F2"/>
<path d="M294.136 258.64H172.351V261.132H294.136V258.64Z" fill="#F2F2F2"/>
<path d="M247.843 232.288H225.409V258.64H247.843V232.288Z" fill="#34495E"/>
<path d="M242.324 237.986H230.929V242.971H242.324V237.986Z" fill="#F2F2F2"/>
<path d="M234.312 189.913H232.175V212.703H234.312V189.913Z" fill="#F2F2F2"/>
<path d="M233.243 216.264C235.21 216.264 236.804 214.67 236.804 212.703C236.804 210.737 235.21 209.142 233.243 209.142C231.277 209.142 229.682 210.737 229.682 212.703C229.682 214.67 231.277 216.264 233.243 216.264Z" fill="#F2F2F2"/>
<path d="M322.705 104.094H73.7942L78.2203 94.8351H320.088L322.705 104.094Z" fill="#34495E"/>
<path d="M328.745 125.459H63.5776L68.0038 116.201H326.128L328.745 125.459Z" fill="#34495E"/>
<path d="M354.811 71.9294C354.811 71.9294 351.235 81.1233 351.982 90.2197C352.119 91.8483 352.667 93.4155 353.576 94.774V94.774L309.774 115.569C309.774 115.569 289.982 117.618 294.921 126.262C299.861 134.906 317.766 121.94 317.766 121.94C317.766 121.94 364.69 115.149 368.394 108.357C372.099 101.566 374.568 73.1643 374.568 73.1643L354.811 71.9294Z" fill="#A0616A"/>
<path d="M356.663 46.6152H365.925C365.925 46.6152 372.716 47.8501 374.568 60.1985C376.421 72.5468 378.273 75.6339 376.421 75.6339C374.568 75.6339 352.341 75.0165 352.341 74.3991C352.341 73.7817 356.663 46.6152 356.663 46.6152Z" fill="#D0CDE1"/>
<path d="M47.5059 231.058C73.7427 231.058 95.0119 209.789 95.0119 183.552C95.0119 157.315 73.7427 136.046 47.5059 136.046C21.2691 136.046 0 157.315 0 183.552C0 209.789 21.2691 231.058 47.5059 231.058Z" fill="#34495E"/>
<path opacity="0.1" d="M47.506 224.407C70.0696 224.407 88.3611 206.115 88.3611 183.552C88.3611 160.988 70.0696 142.697 47.506 142.697C24.9423 142.697 6.65088 160.988 6.65088 183.552C6.65088 206.115 24.9423 224.407 47.506 224.407Z" fill="black"/>
<path d="M45.5482 207.66V201.714C42.5423 201.655 39.4327 200.595 37.6189 199.123L38.8626 195.179C41.0181 196.794 43.6321 197.681 46.3255 197.71C50.0052 197.71 52.4929 195.296 52.4929 191.94C52.4929 188.702 50.4716 186.701 46.6365 184.934C41.3502 182.579 38.0853 179.871 38.0853 174.749C38.0853 169.862 41.143 166.153 45.911 165.27V159.324H49.1241V165.035C51.5201 165.067 53.8572 165.782 55.8616 167.095L54.5657 170.981C52.6434 169.665 50.3654 168.967 48.0358 168.979C44.0454 168.979 42.5423 171.687 42.5423 174.042C42.5423 177.104 44.4598 178.635 48.9688 180.754C54.3066 183.227 57.0018 186.288 57.0018 191.528C57.0018 196.179 54.1513 200.536 48.8131 201.537V207.66H45.5482Z" fill="#F2F2F2"/>
</svg>
